<svg width="26" height="29" viewBox="0 0 26 29" fill="none" xmlns="http://www.w3.org/2000/svg">
<path d="M1.70605 6.94116H4.29429H25.0002" stroke="#00A0D7" stroke-width="2" stroke-linecap="round" stroke-linejoin="round"/>
<path d="M8.1763 6.94112V4.35288C8.1763 3.66644 8.44899 3.00811 8.93438 2.52272C9.41976 2.03734 10.0781 1.76465 10.7645 1.76465H15.941C16.6274 1.76465 17.2858 2.03734 17.7712 2.52272C18.2566 3.00811 18.5292 3.66644 18.5292 4.35288V6.94112M22.4116 6.94112V25.0588C22.4116 25.7452 22.1389 26.4035 21.6535 26.8889C21.1681 27.3743 20.5098 27.647 19.8234 27.647H6.88218C6.19574 27.647 5.53741 27.3743 5.05202 26.8889C4.56663 26.4035 4.29395 25.7452 4.29395 25.0588V6.94112H22.4116Z" stroke="#00A0D7" stroke-width="2" stroke-linecap="round" stroke-linejoin="round"/>
<path d="M10.7646 13.4117V21.1764" stroke="#00A0D7" stroke-width="2" stroke-linecap="round" stroke-linejoin="round"/>
<path d="M15.9414 13.4117V21.1764" stroke="#00A0D7" stroke-width="2" stroke-linecap="round" stroke-linejoin="round"/>
</svg>
