<svg width="17" height="17" viewBox="0 0 17 17" fill="none" xmlns="http://www.w3.org/2000/svg">
<path d="M12.0118 9.25012L9.01184 16C8.41511 16 7.84283 15.763 7.42088 15.341C6.99893 14.9191 6.76188 14.3468 6.76188 13.75V10.7501H2.51696C2.29953 10.7526 2.08417 10.7077 1.88579 10.6187C1.68741 10.5296 1.51077 10.3986 1.36809 10.2345C1.2254 10.0704 1.1201 9.87724 1.05948 9.66843C0.998855 9.45961 0.984355 9.2401 1.01699 9.02513L2.05197 2.27525C2.10621 1.91757 2.28789 1.59155 2.56353 1.35726C2.83917 1.12296 3.1902 0.996182 3.55194 1.00027H12.0118M12.0118 9.25012V1.00027M12.0118 9.25012H14.0142C14.4387 9.25763 14.8512 9.10902 15.1733 8.83251C15.4954 8.55601 15.7048 8.17085 15.7617 7.75015V2.50024C15.7048 2.07955 15.4954 1.69439 15.1733 1.41788C14.8512 1.14137 14.4387 0.992764 14.0142 1.00027H12.0118" stroke="#F45197" stroke-width="1.5" stroke-linecap="round" stroke-linejoin="round"/>
</svg>
