<svg width="17" height="17" viewBox="0 0 17 17" fill="none" xmlns="http://www.w3.org/2000/svg">
<path d="M4.74998 15.9999H2.49999C2.10217 15.9999 1.72064 15.8419 1.43934 15.5606C1.15803 15.2793 1 14.8977 1 14.4999V9.24995C1 8.85213 1.15803 8.4706 1.43934 8.18929C1.72064 7.90799 2.10217 7.74996 2.49999 7.74996H4.74998M9.99994 6.24997V3.24999C9.99994 2.65325 9.76289 2.08096 9.34094 1.65901C8.91898 1.23705 8.34669 1 7.74996 1L4.74998 7.74996V15.9999H13.2099C13.5717 16.004 13.9227 15.8772 14.1983 15.6429C14.474 15.4086 14.6557 15.0826 14.7099 14.7249L15.7449 7.97496C15.7775 7.75997 15.763 7.54047 15.7024 7.33165C15.6418 7.12283 15.5365 6.92968 15.3938 6.7656C15.2511 6.60151 15.0745 6.47041 14.8761 6.38138C14.6777 6.29234 14.4623 6.2475 14.2449 6.24997H9.99994Z" stroke="#80BC00" stroke-width="1.5" stroke-linecap="round" stroke-linejoin="round"/>
</svg>
