<svg width="26" height="24" viewBox="0 0 26 24" fill="none" xmlns="http://www.w3.org/2000/svg">
<path d="M22.6 5.79999H3.4C2.07452 5.79999 1 6.8745 1 8.19999V20.2C1 21.5255 2.07452 22.6 3.4 22.6H22.6C23.9255 22.6 25 21.5255 25 20.2V8.19999C25 6.8745 23.9255 5.79999 22.6 5.79999Z" stroke="white" stroke-width="2" stroke-linecap="round" stroke-linejoin="round"/>
<path d="M17.8002 22.6V3.4C17.8002 2.76348 17.5473 2.15303 17.0973 1.70294C16.6472 1.25286 16.0367 1 15.4002 1H10.6002C9.96368 1 9.35323 1.25286 8.90314 1.70294C8.45305 2.15303 8.2002 2.76348 8.2002 3.4V22.6" stroke="white" stroke-width="2" stroke-linecap="round" stroke-linejoin="round"/>
</svg>
